<?xml version="1.0" encoding="UTF-8"?>
<!DOCTYPE svg PUBLIC "-//W3C//DTD SVG 1.1//EN" "http://www.w3.org/Graphics/SVG/1.1/DTD/svg11.dtd">
<svg xmlns="http://www.w3.org/2000/svg" version="1.1" width="512px" height="512px" style="shape-rendering:geometricPrecision; text-rendering:geometricPrecision; image-rendering:optimizeQuality; fill-rule:evenodd; clip-rule:evenodd" xmlns:xlink="http://www.w3.org/1999/xlink">
<g><path style="opacity:0.992" fill="#010101" d="M 109.5,3.5 C 206.501,3.33334 303.501,3.5 400.5,4C 454.347,12.5086 488.847,43.0086 504,95.5C 504.503,100.19 505.17,104.857 506,109.5C 506.667,206.5 506.667,303.5 506,400.5C 498.909,448.258 473.076,481.425 428.5,500C 419.439,503.242 410.106,505.242 400.5,506C 303.5,506.667 206.5,506.667 109.5,506C 62.4785,499.25 29.6452,474.083 11,430.5C 7.59787,420.757 5.26454,410.757 4,400.5C 3.01385,301.47 3.34718,202.47 5,103.5C 14.9504,53.884 44.1171,21.7174 92.5,7C 98.3633,6.12815 104.03,4.96148 109.5,3.5 Z"/></g>
<g><path style="opacity:1" fill="#fcfcfc" d="M 233.5,86.5 C 235.5,86.5 237.5,86.5 239.5,86.5C 242.5,86.5 245.5,86.5 248.5,86.5C 248.5,101.167 248.5,115.833 248.5,130.5C 243.137,130.949 237.804,131.616 232.5,132.5C 229.933,132.721 227.599,133.388 225.5,134.5C 222.673,134.584 220.006,135.25 217.5,136.5C 214.654,136.552 212.32,137.552 210.5,139.5C 179.377,151.116 156.21,171.783 141,201.5C 140.439,204.279 139.606,206.946 138.5,209.5C 136.896,210.287 136.229,211.62 136.5,213.5C 136.567,214.959 136.234,216.292 135.5,217.5C 134.076,219.515 133.41,221.848 133.5,224.5C 128.571,243.286 128.237,262.286 132.5,281.5C 132.723,285.162 133.723,288.495 135.5,291.5C 149.964,336.125 179.964,364.625 225.5,377C 233.34,377.975 241.007,379.142 248.5,380.5C 248.5,395.167 248.5,409.833 248.5,424.5C 245.5,424.5 242.5,424.5 239.5,424.5C 179.285,417.581 134.285,387.914 104.5,335.5C 104.573,333.973 103.906,332.973 102.5,332.5C 101.89,331.609 101.557,330.609 101.5,329.5C 101.573,327.973 100.906,326.973 99.5,326.5C 96.4511,318.423 93.4511,310.423 90.5,302.5C 90.5797,299.219 89.913,296.219 88.5,293.5C 84.1739,270.622 83.5072,247.622 86.5,224.5C 88.2453,220.8 89.2453,216.8 89.5,212.5C 92.6538,199.86 97.3205,187.86 103.5,176.5C 104.906,176.027 105.573,175.027 105.5,173.5C 105.66,171.847 106.326,170.514 107.5,169.5C 108.906,169.027 109.573,168.027 109.5,166.5C 123.121,144.546 140.787,126.546 162.5,112.5C 164.027,112.573 165.027,111.906 165.5,110.5C 182.157,101.007 199.824,94.0068 218.5,89.5C 223.744,89.1179 228.744,88.1179 233.5,86.5 Z"/></g>
<g><path style="opacity:1" fill="#fcfcfc" d="M 271.5,86.5 C 295.701,88.878 318.368,95.878 339.5,107.5C 339.973,108.906 340.973,109.573 342.5,109.5C 370.006,126.004 391.339,148.337 406.5,176.5C 406.427,178.027 407.094,179.027 408.5,179.5C 411.092,185.022 413.425,190.689 415.5,196.5C 415.415,199.649 416.415,202.316 418.5,204.5C 423.029,219.145 425.362,234.145 425.5,249.5C 410.83,249.667 396.163,249.5 381.5,249C 378.821,213.641 364.154,184.308 337.5,161C 323.119,148.809 306.786,140.309 288.5,135.5C 285.201,133.517 281.534,132.517 277.5,132.5C 275.585,132.784 273.919,132.451 272.5,131.5C 269.456,129.989 266.122,129.322 262.5,129.5C 262.5,115.167 262.5,100.833 262.5,86.5C 265.5,86.5 268.5,86.5 271.5,86.5 Z"/></g>
<g><path style="opacity:1" fill="#4f4f4f" d="M 233.5,86.5 C 228.744,88.1179 223.744,89.1179 218.5,89.5C 223.206,87.6253 228.206,86.6253 233.5,86.5 Z"/></g>
<g><path style="opacity:1" fill="#5c5c5c" d="M 239.5,86.5 C 242.625,85.5206 245.958,85.1872 249.5,85.5C 249.829,100.676 249.496,115.676 248.5,130.5C 248.5,115.833 248.5,101.167 248.5,86.5C 245.5,86.5 242.5,86.5 239.5,86.5 Z"/></g>
<g><path style="opacity:1" fill="#6a6a6a" d="M 339.5,107.5 C 341.027,107.427 342.027,108.094 342.5,109.5C 340.973,109.573 339.973,108.906 339.5,107.5 Z"/></g>
<g><path style="opacity:1" fill="#868686" d="M 165.5,110.5 C 165.027,111.906 164.027,112.573 162.5,112.5C 162.973,111.094 163.973,110.427 165.5,110.5 Z"/></g>
<g><path style="opacity:1" fill="#d3d3d3" d="M 271.5,86.5 C 268.5,86.5 265.5,86.5 262.5,86.5C 262.5,100.833 262.5,115.167 262.5,129.5C 266.122,129.322 269.456,129.989 272.5,131.5C 268.846,131.058 265.179,130.724 261.5,130.5C 261.5,115.5 261.5,100.5 261.5,85.5C 265.042,85.1872 268.375,85.5206 271.5,86.5 Z"/></g>
<g><path style="opacity:1" fill="#4d4d4d" d="M 232.5,132.5 C 230.562,134.163 228.228,134.829 225.5,134.5C 227.599,133.388 229.933,132.721 232.5,132.5 Z"/></g>
<g><path style="opacity:1" fill="#5d5d5d" d="M 277.5,132.5 C 281.534,132.517 285.201,133.517 288.5,135.5C 284.573,135.074 280.907,134.074 277.5,132.5 Z"/></g>
<g><path style="opacity:1" fill="#4a4a4a" d="M 217.5,136.5 C 215.491,138.065 213.157,139.065 210.5,139.5C 212.32,137.552 214.654,136.552 217.5,136.5 Z"/></g>
<g><path style="opacity:1" fill="#fcfcfc" d="M 275.5,211.5 C 274.22,210.069 272.553,209.402 270.5,209.5C 242.84,202.748 222.673,212.081 210,237.5C 204.136,255.517 206.803,272.184 218,287.5C 231.158,301.553 247.325,307.053 266.5,304C 282.213,299.447 292.88,289.613 298.5,274.5C 300.199,274.34 301.866,274.506 303.5,275C 309.416,278.126 315.416,280.959 321.5,283.5C 321.973,284.906 322.973,285.573 324.5,285.5C 328.277,287.722 332.277,289.389 336.5,290.5C 332.988,302.877 326.321,313.377 316.5,322C 286.851,347.058 253.851,352.391 217.5,338C 201.531,329.865 188.531,318.365 178.5,303.5C 178.573,301.973 177.906,300.973 176.5,300.5C 171.422,289.933 167.756,278.933 165.5,267.5C 165.301,257.473 165.634,247.473 166.5,237.5C 168.858,226.926 172.691,216.926 178,207.5C 201.242,174.185 233.075,160.685 273.5,167C 301.739,173.672 322.573,189.838 336,215.5C 336.667,216.833 336.667,218.167 336,219.5C 323.821,225.839 311.321,231.506 298.5,236.5C 296.767,230.92 293.934,225.92 290,221.5C 285.399,217.787 280.565,214.453 275.5,211.5 Z"/></g>
<g><path style="opacity:1" fill="#808080" d="M 109.5,166.5 C 109.573,168.027 108.906,169.027 107.5,169.5C 107.427,167.973 108.094,166.973 109.5,166.5 Z"/></g>
<g><path style="opacity:1" fill="#838383" d="M 105.5,173.5 C 105.573,175.027 104.906,176.027 103.5,176.5C 103.427,174.973 104.094,173.973 105.5,173.5 Z"/></g>
<g><path style="opacity:1" fill="#636363" d="M 406.5,176.5 C 407.906,176.973 408.573,177.973 408.5,179.5C 407.094,179.027 406.427,178.027 406.5,176.5 Z"/></g>
<g><path style="opacity:1" fill="#adadad" d="M 415.5,196.5 C 417.02,198.89 418.02,201.557 418.5,204.5C 416.415,202.316 415.415,199.649 415.5,196.5 Z"/></g>
<g><path style="opacity:1" fill="#676767" d="M 270.5,209.5 C 272.553,209.402 274.22,210.069 275.5,211.5C 273.447,211.598 271.78,210.931 270.5,209.5 Z"/></g>
<g><path style="opacity:1" fill="#767676" d="M 138.5,209.5 C 138.34,211.153 137.674,212.486 136.5,213.5C 136.229,211.62 136.896,210.287 138.5,209.5 Z"/></g>
<g><path style="opacity:1" fill="#545454" d="M 89.5,212.5 C 89.2453,216.8 88.2453,220.8 86.5,224.5C 86.7547,220.2 87.7547,216.2 89.5,212.5 Z"/></g>
<g><path style="opacity:1" fill="#545554" d="M 135.5,217.5 C 135.59,220.152 134.924,222.485 133.5,224.5C 133.41,221.848 134.076,219.515 135.5,217.5 Z"/></g>
<g><path style="opacity:1" fill="#686868" d="M 166.5,237.5 C 165.634,247.473 165.301,257.473 165.5,267.5C 164.343,259.01 164.176,250.343 165,241.5C 165.21,239.942 165.71,238.609 166.5,237.5 Z"/></g>
<g><path style="opacity:1" fill="#8c8c8c" d="M 424.5,276.5 C 424.5,271.833 424.5,267.167 424.5,262.5C 409.833,262.5 395.167,262.5 380.5,262.5C 380.768,264.099 380.434,265.432 379.5,266.5C 379.5,264.833 379.5,263.167 379.5,261.5C 394.833,261.5 410.167,261.5 425.5,261.5C 425.821,266.695 425.487,271.695 424.5,276.5 Z"/></g>
<g><path style="opacity:1" fill="#fcfcfc" d="M 424.5,276.5 C 423.37,283.483 422.37,290.483 421.5,297.5C 419.792,300.95 418.459,304.617 417.5,308.5C 402.482,351.189 375.149,383.523 335.5,405.5C 333.326,405.75 331.659,406.75 330.5,408.5C 323.763,411.763 316.763,414.596 309.5,417C 299.091,420.347 288.424,422.513 277.5,423.5C 272.518,424.053 267.518,424.387 262.5,424.5C 262.5,409.833 262.5,395.167 262.5,380.5C 267.434,380.771 272.1,380.104 276.5,378.5C 327.836,367.677 361.336,337.011 377,286.5C 378.162,279.865 378.995,273.199 379.5,266.5C 380.434,265.432 380.768,264.099 380.5,262.5C 395.167,262.5 409.833,262.5 424.5,262.5C 424.5,267.167 424.5,271.833 424.5,276.5 Z"/></g>
<g><path style="opacity:1" fill="#676767" d="M 321.5,283.5 C 323.027,283.427 324.027,284.094 324.5,285.5C 322.973,285.573 321.973,284.906 321.5,283.5 Z"/></g>
<g><path style="opacity:1" fill="#5d5d5d" d="M 132.5,281.5 C 134.277,284.505 135.277,287.838 135.5,291.5C 133.723,288.495 132.723,285.162 132.5,281.5 Z"/></g>
<g><path style="opacity:1" fill="#494949" d="M 88.5,293.5 C 89.913,296.219 90.5797,299.219 90.5,302.5C 89.087,299.781 88.4203,296.781 88.5,293.5 Z"/></g>
<g><path style="opacity:1" fill="#2f2f2f" d="M 421.5,297.5 C 421.323,301.708 419.99,305.374 417.5,308.5C 418.459,304.617 419.792,300.95 421.5,297.5 Z"/></g>
<g><path style="opacity:1" fill="#747474" d="M 176.5,300.5 C 177.906,300.973 178.573,301.973 178.5,303.5C 177.094,303.027 176.427,302.027 176.5,300.5 Z"/></g>
<g><path style="opacity:1" fill="#676767" d="M 99.5,326.5 C 100.906,326.973 101.573,327.973 101.5,329.5C 100.094,329.027 99.427,328.027 99.5,326.5 Z"/></g>
<g><path style="opacity:1" fill="#686868" d="M 102.5,332.5 C 103.906,332.973 104.573,333.973 104.5,335.5C 103.094,335.027 102.427,334.027 102.5,332.5 Z"/></g>
<g><path style="opacity:1" fill="#606060" d="M 248.5,380.5 C 249.496,395.324 249.829,410.324 249.5,425.5C 245.958,425.813 242.625,425.479 239.5,424.5C 242.5,424.5 245.5,424.5 248.5,424.5C 248.5,409.833 248.5,395.167 248.5,380.5 Z"/></g>
<g><path style="opacity:1" fill="#c4c4c4" d="M 276.5,378.5 C 272.1,380.104 267.434,380.771 262.5,380.5C 262.5,395.167 262.5,409.833 262.5,424.5C 267.518,424.387 272.518,424.053 277.5,423.5C 272.432,425.178 267.098,425.844 261.5,425.5C 261.5,410.167 261.5,394.833 261.5,379.5C 266.518,379.387 271.518,379.053 276.5,378.5 Z"/></g>
<g><path style="opacity:1" fill="#444444" d="M 335.5,405.5 C 334.514,407.408 332.848,408.408 330.5,408.5C 331.659,406.75 333.326,405.75 335.5,405.5 Z"/></g>
<g><path style="opacity:0.015" fill="#fefffe" d="M 145.5,510.5 C 152.989,509.344 160.655,509.178 168.5,510C 160.841,510.5 153.174,510.666 145.5,510.5 Z"/></g>
<g><path style="opacity:0.047" fill="#fefffe" d="M 234.5,510.5 C 267.664,509.336 300.997,509.169 334.5,510C 301.168,510.5 267.835,510.667 234.5,510.5 Z"/></g>
<g><path style="opacity:0.021" fill="#fefffe" d="M 448.5,510.5 C 450.628,509.371 452.961,509.204 455.5,510C 453.19,510.497 450.857,510.663 448.5,510.5 Z"/></g>
</svg>
